# xmcd
#
# Track frame offsets:
#	182
#	12400
#	23510
#	38312
#	53470
#	64090
#	76247
#	88657
#	101235
#	112140
#	131200
#	141677
#	157852
#	168457
#	180870
#	194262
#	209342
#
# Disc length: 2947 seconds
# Revision: 0
# Processed by: cddbd v1.5.2PL0 Copyright (c) Steve Scherf et al.
# Submitted via: dBpowerAMP V12.0
#
DISCID=dd0b8111
DTITLE=Aretha Franklin - 30 Greatest Hits
DYEAR=1985
DGENRE=Soul
TTITLE0=I Never Loved A Man (The Way I Love You)
TTITLE1=Respect
TTITLE2=Do Right Woman, Do Right Man
TTITLE3=Dr. Feelgood (Love Is A Serious Business)
TTITLE4=Save Me
TTITLE5=Baby, I Love You
TTITLE6=(You Make Me Feel Like) A Natural Woman
TTITLE7=Chain Of Fools
TTITLE8=(Sweet Sweet Baby) Since You've Been Gone
TTITLE9=Ain't No Way
TTITLE10=Think
TTITLE11=I Say A Little Prayer
TTITLE12=The House That Jack Built
TTITLE13=See Saw
TTITLE14=The Weight
TTITLE15=Share Your Love With Me
TTITLE16=Eleanor Rigby
EXTD=
EXTT0=
EXTT1=
EXTT2=
EXTT3=
EXTT4=
EXTT5=
EXTT6=
EXTT7=
EXTT8=
EXTT9=
EXTT10=
EXTT11=
EXTT12=
EXTT13=
EXTT14=
EXTT15=
EXTT16=
PLAYORDER=
